<svg width="25" height="24" viewBox="0 0 25 24" fill="none" xmlns="http://www.w3.org/2000/svg">
<mask id="mask0_503_31894" style="mask-type:alpha" maskUnits="userSpaceOnUse" x="2" y="1" width="21" height="22">
<path fill-rule="evenodd" clip-rule="evenodd" d="M23 1H2V23H23V1ZM16.4571 8.04289C16.8476 8.43342 16.8476 9.06658 16.4571 9.45711L13.9142 12L16.4571 14.5429C16.8476 14.9334 16.8476 15.5666 16.4571 15.9571C16.0666 16.3476 15.4334 16.3476 15.0429 15.9571L12.5 13.4142L9.95711 15.9571C9.56658 16.3476 8.93342 16.3476 8.54289 15.9571C8.15237 15.5666 8.15237 14.9334 8.54289 14.5429L11.0858 12L8.54289 9.45711C8.15237 9.06658 8.15237 8.43342 8.54289 8.04289C8.93342 7.65237 9.56658 7.65237 9.95711 8.04289L12.5 10.5858L15.0429 8.04289C15.4334 7.65237 16.0666 7.65237 16.4571 8.04289Z" fill="#D9D9D9"/>
</mask>
<g mask="url(#mask0_503_31894)">
<path d="M12.5 21.25C17.6086 21.25 21.75 17.1086 21.75 12C21.75 6.89137 17.6086 2.75 12.5 2.75C7.39137 2.75 3.25 6.89137 3.25 12C3.25 17.1086 7.39137 21.25 12.5 21.25Z" fill="#121331" stroke="#121331" stroke-width="1.5" stroke-miterlimit="10" stroke-linecap="round"/>
</g>
</svg>
